PathFileType	4	(X/Y/Z)	path1_22_0-584.trc
DataRate	CameraRate	NumFrames	NumMarkers	Units	OrigDataRate	OrigDataStartFrame	OrigNumFrames
30	30	9	22	m	30	365	584
Frame#	Time	Hip			RHip			RKnee			RAnkle			RBigToe			RSmallToe			RHeel			LHip			LKnee			LAnkle			LBigToe			LSmallToe			LHeel			Neck			Head			Nose			RShoulder			RElbow			RWrist			LShoulder			LElbow			LWrist		
		X1	Y1	Z1	X2	Y2	Z2	X3	Y3	Z3	X4	Y4	Z4	X5	Y5	Z5	X6	Y6	Z6	X7	Y7	Z7	X8	Y8	Z8	X9	Y9	Z9	X10	Y10	Z10	X11	Y11	Z11	X12	Y12	Z12	X13	Y13	Z13	X14	Y14	Z14	X15	Y15	Z15	X16	Y16	Z16	X17	Y17	Z17	X18	Y18	Z18	X19	Y19	Z19	X20	Y20	Z20	X21	Y21	Z21	X22	Y22	Z22
366	12.2	2.258397861622983	0.8133387193915051	0.5720418517370812	2.2942520356440737	0.7950494808522501	0.48723575499797156	2.3591553242223227	0.4578784966042356	0.48334805438776485	2.5331040659009667	0.1115317786861061	0.5196081011319184	2.371493372150216	0.03041780134733373	0.5459064099108432	2.4102831014278387	0.021360709594690056	0.5002170250916658	2.5925073969308174	0.05187467192603119	0.5239602726581278	2.199551898632257	0.7978012295860255	0.6527047050509426	2.088887230941342	0.4761693598667085	0.6507968561342988	2.0179160614165665	0.13338539975680158	0.6429495561007326	1.838407004812222	0.07529019899296026	0.6543663394311149	1.8690911343742844	0.07116114487244346	0.712589503444426	2.040233026710168	0.06268229322139662	0.6314031594010305	2.198288115798752	1.4313163779911677	0.562575672534704	2.1097861239747377	1.6755121541322313	0.5509672637373024	2.0495138806333935	1.543216869774858	0.5657321812830711	2.2307706297299825	1.3461014836833862	0.40445823904516753	2.1508798165623775	1.0565180089029353	0.34506801854510144	2.003051342272837	0.8520660728153263	0.3356571413135618	2.226815945570457	1.3392212191212147	0.7489753397712515	2.2973967990153454	1.065254215715333	0.7387173399907349	2.350894871095878	0.813461477360598	0.7521752171131566
367	12.233333333333333	2.2297623693466786	0.8139116030123233	0.5764038072678949	2.266373537459641	0.7958950623867462	0.49055402515846397	2.3357362786100575	0.45859386425229043	0.4844431404256565	2.5250385931948367	0.11932941335234179	0.5159932096906896	2.370869833424957	0.028478787987942615	0.5431811207466127	2.4096988289318477	0.022663669747660358	0.49856176528618734	2.5867752089792755	0.06314221929340776	0.5191958214417988	2.170582630592202	0.7975640104501617	0.6542761561349058	2.0682966286268294	0.4744796029533612	0.653256548109763	2.0097912862694667	0.12758467586341676	0.6422091312567817	1.8304312865293326	0.06476140962330094	0.6495765009511637	1.8619814039813756	0.06155703401320622	0.7098306733825362	2.035543049633663	0.058825034806675794	0.631911795322731	2.1698853259262494	1.4317749820428824	0.5663319781047164	2.077520843022053	1.6697548544090008	0.553824353450568	2.024041538053396	1.5440674152861342	0.5740614286158153	2.202200919864797	1.3475270879687833	0.4103244801309815	2.1252576222881685	1.0573891929465236	0.3507360196976074	1.9770862435237284	0.8542945908421478	0.3453136388853449	2.1963316344372568	1.3379487064336482	0.7509214990850251	2.2678443127641126	1.0653017439062085	0.7422745540503745	2.3227967547449464	0.8130663330100417	0.7585296654097021
368	12.266666666666667	2.1996440107411885	0.8150073486564551	0.5810161657213059	2.2359913160745277	0.7968403335605281	0.4942014631985421	2.307304759149691	0.4582571032645423	0.4863724469459968	2.5120236737331743	0.1309913053766998	0.5116118870721412	2.3704382306178715	0.026981269656898753	0.5388206519024117	2.4097990438916246	0.0251996342846835	0.49404900022530124	2.5767826175425133	0.07896556513275534	0.5133200942958668	2.141583123403238	0.7977256627293445	0.656795063656456	2.0469156201833334	0.47406845904923417	0.6552677171356133	2.004121237291361	0.12150957779025458	0.6412643989421369	1.824094136327841	0.05510433334572403	0.6447798351409899	1.8570283273244823	0.05265070795235012	0.706391598098064	2.034043133912223	0.054287786023421124	0.6325141257328972	2.1404924214122714	1.4334475892365057	0.5740422522840549	2.0469484025404165	1.6663832272697907	0.558838969030948	1.996401997985846	1.5453210593331943	0.582958767034937	2.1725730300502684	1.3494469368820858	0.4165711481198024	2.1005079505114885	1.0581744456128275	0.3566103110115138	1.9546972630553658	0.8554184915922762	0.3541929156952321	2.1645932979732483	1.337427896858779	0.7552853595045574	2.2370363321468716	1.065381680444773	0.7499892464451723	2.290239790472777	0.8128450719309782	0.7674112726336325
369	12.3	2.168644176336565	0.8163661904666534	0.5855267222624227	2.2034534032647013	0.79782067784599	0.497881085859185	2.2728175469276977	0.4564677984619338	0.48888873446959924	2.4926632089636027	0.14696079820167857	0.5068446060613998	2.3700370238368116	0.026732920668808027	0.5337644135814096	2.4102908697780894	0.029414834175501656	0.48811922184853834	2.5608417971240525	0.10047825670557842	0.506980717775402	2.113532303289278	0.7981308259931026	0.6602226128134417	2.024976882354664	0.47450820935425686	0.6564960790372237	2.0001970522916586	0.11551105349584265	0.6402287999509376	1.8195221695951735	0.04718257250566954	0.6413611183976735	1.8537018577379583	0.04521654770076668	0.7035945087468314	2.0339611405731395	0.049782081549384745	0.6330542639322473	2.1103166852432422	1.4360986497728476	0.5840234329137232	2.0185961930672707	1.6652687516134124	0.5659509161914041	1.9667879515227622	1.5467441923998853	0.5916069661496256	2.142186929735444	1.351819899650213	0.423039692086243	2.0769515955817424	1.059021115886898	0.3626265958923832	1.9358843950010935	0.8555667640023903	0.3619635143682074	2.1321578897359674	1.337701838634307	0.7617908657172207	2.2047434512752266	1.0649703481333324	0.7616025537887716	2.2535952587093586	0.8128706379151479	0.7786708421217312
370	12.333333333333334	2.137473030034442	0.817816126516793	0.5897101038657602	2.169327829832277	0.7988172836133753	0.5013615825745559	2.2312953647759017	0.45367320523463356	0.4916743360570176	2.466123287204082	0.16659330949507203	0.5024814358203158	2.368145986498935	0.028123982344004265	0.5289261013376678	2.4094528400263573	0.035345327365347304	0.48259906838611166	2.5365407261581914	0.1275759579090518	0.5010948273632991	2.087223374172857	0.7986915072278802	0.6643165632865414	2.003543652271731	0.4748814818475723	0.6570639206889921	1.9976708837200312	0.1098766472488241	0.6391205074721792	1.8168394993229753	0.04109300089399954	0.6398980270760655	1.8514544463277727	0.03962377671753465	0.7018221454548716	2.034111343846156	0.046056494575757036	0.6334179182309481	2.0794420735290444	1.4394359536540686	0.5943696896355701	1.99203034472542	1.665812587220187	0.5746527781606408	1.9356287679187705	1.548412778603739	0.5992342403739495	2.1114227510038317	1.354685149171938	0.4295466421679492	2.0550133475789734	1.0602964086537021	0.36877236348649983	1.9205681935594592	0.854949619741854	0.36850279261409674	2.0992330486555426	1.3384756026055655	0.7692527628187358	2.1705067131687863	1.0637906683257699	0.7754722086189552	2.213210542264113	0.8132328112446876	0.7918285403578598
371	12.366666666666667	2.1067927745822557	0.8194221021999993	0.5934796041929735	2.1342809722843903	0.7999578187072771	0.5044318496590364	2.182184520936494	0.45120841206040024	0.4945260229463399	2.4321094173463034	0.1879295150822609	0.4995124821820122	2.3613696399698343	0.031153831561958955	0.5250157070683223	2.4034441982843733	0.04232248145914429	0.4787343168985775	2.5017054635200084	0.15804078877756145	0.4967305996370053	2.0631585125874765	0.7995033677522544	0.6687589262044235	1.9840953209796277	0.47421406200115784	0.6574322359402569	1.9963397885468352	0.10500793635294603	0.6380301273005847	1.8157944595440296	0.036453243098989264	0.6399815218158275	1.8494662169198353	0.03593490061823564	0.7003887781929127	2.034481318928373	0.0433928432070385	0.633818050935432	2.0479055949252913	1.4431917095405766	0.6039121400887582	1.9662190958113377	1.6673569675444129	0.5842174644926287	1.903493938546585	1.550389718884295	0.6054291296967873	2.0807510514458	1.3581181708987136	0.43586001125470347	2.0350792144105077	1.0624563142112793	0.37501867308580183	1.9085620651609738	0.8537927922562267	0.37378393028521795	2.0654377130044326	1.339177417213399	0.7761878113101062	2.133943702482692	1.0618673408184955	0.7894362513285695	2.169022188781768	0.8139148861396251	0.8062600028908594
372	12.4	2.07709440503945	0.8214647657481303	0.5968231641032732	2.099109005203532	0.8016330930308294	0.5069057134132138	2.1256414971940205	0.45086723993023264	0.4973828100155054	2.390454649597233	0.20802745748150553	0.49863332307922903	2.344396910542496	0.0354199072162117	0.5223934218581129	2.386311878621715	0.04921272486619008	0.47686013852429016	2.4559762613766236	0.18753530348902975	0.4946851559913252	2.041299959637298	0.800893105277588	0.6732922416433657	1.9676723262891171	0.4721791040005485	0.6580737398342702	1.9959625246367048	0.10151089906539548	0.6372274425814966	1.8157276257051018	0.032724156255822284	0.6406578196230303	1.847076785366584	0.03386163246853973	0.6983118773823709	2.0358444383351424	0.04155612245293119	0.6346390509854615	2.015876535287427	1.4470194818322895	0.6121030204467237	1.9398925348428975	1.6692754344418745	0.5937660987544828	1.8710224994743667	1.5526236553249488	0.610215110181563	2.0507000863546394	1.3620913941121184	0.44175684617027017	2.017281551906155	1.0657794042422986	0.3812917109029379	1.8994814423530424	0.8522231658471577	0.37777474772544306	2.0304770508206613	1.3394848490483915	0.781557110045632	2.09490192761965	1.05962482790696	0.8019313751282034	2.12075660459961	0.814954149962675	0.8211257010993531
373	12.433333333333334	2.048553385479727	0.8241992720549126	0.5997646839352352	2.06474221489043	0.8043656724809004	0.5087342383160753	2.0626506078387656	0.4542334103668473	0.500143414448549	2.340881328578025	0.22368942579980078	0.49981159927918606	2.3108001896988863	0.04005869490635416	0.5208441780408196	2.351484291985598	0.05487217449551725	0.47633676441220646	2.4014102281592447	0.21050419067012438	0.49508729602123197	2.0208050206507915	0.8032617200289537	0.6778019873537637	1.9542696731851172	0.46925997330663105	0.6593752256457305	1.996174806620694	0.09991757196024541	0.6370877019217919	1.8159840085270174	0.029483905888142564	0.6412251500788307	1.8444729820126502	0.032773030179127804	0.6953808225908292	2.038482881806705	0.040266325314533	0.6360395047346145	1.9837615667081536	1.4503814964603263	0.6187716783835366	1.911952839494778	1.671041289653342	0.6023705284801985	1.8387645469494829	1.5549707815343012	0.6138924306052043	2.0216639496188322	1.366369798919473	0.44710195522492385	2.0012995776939246	1.0701822418410376	0.38743362237248724	1.892655414531564	0.8502431493127068	0.38038675245036396	1.9947779005268607	1.3396963195235614	0.7852480749270931	2.053511123916339	1.0578480019105236	0.8124095384164186	2.0682778482611703	0.8165756136774677	0.835344823739925
374	12.466666666666669	2.0208791214748096	0.8276086921673211	0.6023900464128952	2.031845787257745	0.8084368508082691	0.5100388278897056	1.9952108720563388	0.4619454534982109	0.5026742099115216	2.282714496814092	0.23239239377075854	0.502351321731165	2.255149576293303	0.04387638119422029	0.5196018684466784	2.2943359708987914	0.0583342322037941	0.47585676646185887	2.340665190157565	0.22190587756672336	0.4974989381832738	2.0003309889739715	0.8067406207067526	0.6822862689402319	1.943077812622871	0.4661918469819886	0.6615604871846065	1.9965493975862874	0.10020419219452584	0.6378871772294137	1.816226744198564	0.02663660710334476	0.6417557627282194	1.8426387223439453	0.03193953462555402	0.6924138786245365	2.0416738217957895	0.03936544089096231	0.6378470872983254	1.9520567535055184	1.4527013789208676	0.6240256019423002	1.8820257873340294	1.672420083833508	0.6094164854374022	1.8070316575242207	1.5571995475372629	0.6169082253852808	1.993772826446693	1.3705513292331855	0.45196031021015237	1.9862642842333074	1.075243976991546	0.39315603980853503	1.8871747125389675	0.8478923326019073	0.3815106802770591	1.9592033163059754	1.340373749259948	0.7878175821894251	2.010099667858624	1.057290200204225	0.8209866196174054	2.0117433604340333	0.819053767893613	0.8478618404008578
